<mxfile host="app.diagrams.net" modified="2022-03-19T13:16:24.899Z" agent="5.0 (Macintosh; Intel Mac OS X 10_15_7) AppleWebKit/537.36 (KHTML, like Gecko) Chrome/99.0.4844.51 Safari/537.36" etag="GWDcHjliy7Bpp-fQEst_" version="17.1.2" type="github">
  <diagram id="3228e29e-7158-1315-38df-8450db1d8a1d" name="Page-1">
    <mxGraphModel dx="668" dy="932" grid="0" gridSize="10" guides="1" tooltips="1" connect="1" arrows="1" fold="1" page="1" pageScale="1" pageWidth="600" pageHeight="229" background="#EFF1F3" math="0" shadow="0">
      <root>
        <mxCell id="0" />
        <mxCell id="1" parent="0" />
        <mxCell id="23iM9Gp5Ji6-i4gFpPbt-2" value="" style="rounded=1;whiteSpace=wrap;html=1;fillColor=none;strokeColor=#9AC7BF;strokeWidth=2;" parent="1" vertex="1">
          <mxGeometry x="106" y="17" width="388" height="420" as="geometry" />
        </mxCell>
        <mxCell id="23iM9Gp5Ji6-i4gFpPbt-3" value="&lt;font size=&quot;1&quot; color=&quot;#4a919b&quot;&gt;&lt;b style=&quot;font-size: 20px&quot;&gt;server层&lt;/b&gt;&lt;/font&gt;" style="text;html=1;strokeColor=none;fillColor=none;align=center;verticalAlign=middle;whiteSpace=wrap;rounded=0;" parent="1" vertex="1">
          <mxGeometry x="131" y="20" width="102" height="32" as="geometry" />
        </mxCell>
        <mxCell id="23iM9Gp5Ji6-i4gFpPbt-4" value="&lt;font style=&quot;font-size: 16px&quot; color=&quot;#000000&quot;&gt;连接管理&lt;/font&gt;" style="rounded=1;whiteSpace=wrap;html=1;fontSize=22;fontColor=#FFFFFF;fillColor=#9AC7BF;strokeColor=none;" parent="1" vertex="1">
          <mxGeometry x="251.5" y="26" width="96" height="40" as="geometry" />
        </mxCell>
        <mxCell id="23iM9Gp5Ji6-i4gFpPbt-7" value="&lt;font color=&quot;#000000&quot;&gt;&lt;span style=&quot;font-size: 16px&quot;&gt;分析器&lt;/span&gt;&lt;/font&gt;" style="rounded=1;whiteSpace=wrap;html=1;fontSize=22;fontColor=#FFFFFF;fillColor=#9AC7BF;strokeColor=none;" parent="1" vertex="1">
          <mxGeometry x="251.5" y="206" width="96" height="40" as="geometry" />
        </mxCell>
        <mxCell id="23iM9Gp5Ji6-i4gFpPbt-9" value="" style="shape=flexArrow;endArrow=classic;html=1;rounded=0;fontSize=16;fontColor=#000000;fillColor=#FDD276;strokeColor=none;" parent="1" edge="1">
          <mxGeometry width="50" height="50" relative="1" as="geometry">
            <mxPoint x="299.08000000000004" y="160" as="sourcePoint" />
            <mxPoint x="299.08000000000004" y="204" as="targetPoint" />
          </mxGeometry>
        </mxCell>
        <mxCell id="23iM9Gp5Ji6-i4gFpPbt-10" value="&lt;font color=&quot;#000000&quot;&gt;&lt;span style=&quot;font-size: 16px&quot;&gt;优化器&lt;/span&gt;&lt;/font&gt;" style="rounded=1;whiteSpace=wrap;html=1;fontSize=22;fontColor=#FFFFFF;fillColor=#9AC7BF;strokeColor=none;" parent="1" vertex="1">
          <mxGeometry x="251" y="297" width="96" height="40" as="geometry" />
        </mxCell>
        <mxCell id="23iM9Gp5Ji6-i4gFpPbt-11" value="" style="shape=flexArrow;endArrow=classic;html=1;rounded=0;fontSize=16;fontColor=#000000;fillColor=#FDD276;strokeColor=none;" parent="1" edge="1">
          <mxGeometry width="50" height="50" relative="1" as="geometry">
            <mxPoint x="298.58000000000004" y="251" as="sourcePoint" />
            <mxPoint x="298.58000000000004" y="295" as="targetPoint" />
          </mxGeometry>
        </mxCell>
        <mxCell id="23iM9Gp5Ji6-i4gFpPbt-13" value="&lt;font color=&quot;#000000&quot;&gt;&lt;span style=&quot;font-size: 16px&quot;&gt;执行器&lt;/span&gt;&lt;/font&gt;" style="rounded=1;whiteSpace=wrap;html=1;fontSize=22;fontColor=#FFFFFF;fillColor=#9AC7BF;strokeColor=none;" parent="1" vertex="1">
          <mxGeometry x="251" y="388" width="96" height="40" as="geometry" />
        </mxCell>
        <mxCell id="23iM9Gp5Ji6-i4gFpPbt-14" value="" style="shape=flexArrow;endArrow=classic;html=1;rounded=0;fontSize=16;fontColor=#000000;fillColor=#FDD276;strokeColor=none;" parent="1" edge="1">
          <mxGeometry width="50" height="50" relative="1" as="geometry">
            <mxPoint x="298.58000000000004" y="342" as="sourcePoint" />
            <mxPoint x="298.58000000000004" y="386" as="targetPoint" />
          </mxGeometry>
        </mxCell>
        <mxCell id="23iM9Gp5Ji6-i4gFpPbt-15" value="&lt;font style=&quot;font-size: 12px&quot;&gt;管理查询连接&lt;/font&gt;" style="text;html=1;strokeColor=none;fillColor=none;align=center;verticalAlign=middle;whiteSpace=wrap;rounded=0;fontSize=16;fontColor=#000000;" parent="1" vertex="1">
          <mxGeometry x="347.5" y="31.5" width="118" height="31" as="geometry" />
        </mxCell>
        <mxCell id="23iM9Gp5Ji6-i4gFpPbt-16" value="&lt;font style=&quot;font-size: 12px&quot;&gt;sql词法语法分析&lt;/font&gt;" style="text;html=1;strokeColor=none;fillColor=none;align=center;verticalAlign=middle;whiteSpace=wrap;rounded=0;fontSize=16;fontColor=#000000;" parent="1" vertex="1">
          <mxGeometry x="349" y="210.5" width="118" height="31" as="geometry" />
        </mxCell>
        <mxCell id="23iM9Gp5Ji6-i4gFpPbt-17" value="&lt;font style=&quot;font-size: 12px&quot;&gt;选择索引&lt;/font&gt;" style="text;html=1;strokeColor=none;fillColor=none;align=center;verticalAlign=middle;whiteSpace=wrap;rounded=0;fontSize=16;fontColor=#000000;" parent="1" vertex="1">
          <mxGeometry x="347.5" y="301.5" width="118" height="31" as="geometry" />
        </mxCell>
        <mxCell id="23iM9Gp5Ji6-i4gFpPbt-18" value="&lt;font style=&quot;font-size: 12px&quot;&gt;调用引擎层接口&lt;/font&gt;" style="text;html=1;strokeColor=none;fillColor=none;align=center;verticalAlign=middle;whiteSpace=wrap;rounded=0;fontSize=16;fontColor=#000000;" parent="1" vertex="1">
          <mxGeometry x="347" y="392.5" width="118" height="31" as="geometry" />
        </mxCell>
        <mxCell id="nmHDwvDxE2jo5v5Rmbuw-1" value="&lt;font color=&quot;#000000&quot;&gt;&lt;span style=&quot;font-size: 16px&quot;&gt;查询缓存&lt;/span&gt;&lt;/font&gt;" style="rounded=1;whiteSpace=wrap;html=1;fontSize=22;fontColor=#FFFFFF;fillColor=#535E80;strokeColor=none;" parent="1" vertex="1">
          <mxGeometry x="251.5" y="115" width="96" height="40" as="geometry" />
        </mxCell>
        <mxCell id="nmHDwvDxE2jo5v5Rmbuw-2" value="" style="shape=flexArrow;endArrow=classic;html=1;rounded=0;fontSize=16;fontColor=#000000;fillColor=#FDD276;strokeColor=none;" parent="1" edge="1">
          <mxGeometry width="50" height="50" relative="1" as="geometry">
            <mxPoint x="299.0799999999999" y="69" as="sourcePoint" />
            <mxPoint x="299.0799999999999" y="113" as="targetPoint" />
          </mxGeometry>
        </mxCell>
        <mxCell id="nmHDwvDxE2jo5v5Rmbuw-3" value="&lt;span style=&quot;font-size: 12px&quot;&gt;8.0版本后被删除了&lt;/span&gt;" style="text;html=1;strokeColor=none;fillColor=none;align=center;verticalAlign=middle;whiteSpace=wrap;rounded=0;fontSize=16;fontColor=#000000;" parent="1" vertex="1">
          <mxGeometry x="349" y="119.5" width="118" height="31" as="geometry" />
        </mxCell>
      </root>
    </mxGraphModel>
  </diagram>
</mxfile>
